<svg width="16.500000" height="21.000000" viewBox="0 0 16.5 21" fill="none" xmlns="http://www.w3.org/2000/svg" xmlns:xlink="http://www.w3.org/1999/xlink">
	<desc>
			Created with Pixso.
	</desc>
	<defs/>
	<path id="Vector" d="M8.25 21L1.92 13.53C1.83 13.42 1.74 13.31 1.66 13.2C0.58 11.77 -0.01 10.03 0 8.25C0 6.06 0.86 3.96 2.41 2.41C3.96 0.86 6.06 0 8.25 0C10.43 0 12.53 0.86 14.08 2.41C15.63 3.96 16.5 6.06 16.5 8.25C16.5 10.03 15.91 11.77 14.83 13.19L14.83 13.2C14.83 13.2 14.61 13.49 14.57 13.53L8.25 21ZM2.85 12.29C2.86 12.29 3.03 12.52 3.07 12.57L8.25 18.68L13.43 12.56C13.46 12.52 13.64 12.29 13.64 12.29C14.52 11.13 15 9.7 15 8.25C15 6.45 14.28 4.74 13.02 3.47C11.75 2.21 10.04 1.5 8.25 1.5C6.45 1.5 4.74 2.21 3.47 3.47C2.21 4.74 1.5 6.45 1.5 8.25C1.49 9.71 1.97 11.13 2.85 12.29Z" fill="#FFF9F4" fill-opacity="1.000000" fill-rule="nonzero"/>
</svg>
